<?xml version="1.0" encoding="UTF-8"?>
<svg xmlns="http://www.w3.org/2000/svg"
     width="2000" height="2000"
     viewBox="11 5 647 597"
     fill="none">
  <!-- Transparent background by default -->
   <path d="M379 45Q301 45 250.5 77.5Q200 110 175.5 161.0Q151 212 151 267Q151 314 172.0 358.5Q193 403 235.0 432.5Q277 462 338 462Q392 462 432.5 441.5Q473 421 495.5 385.0Q518 349 518 302Q518 264 500.5 228.0Q483 192 451.5 169.0Q420 146 377 146Q322 146 286.0 178.5Q250 211 250 263Q250 307 273.5 333.0Q297 359 337 359Q379 359 399.0 336.5Q419 314 419 287Q419 270 413.5 258.0Q408 246 403 241L357 256Q361 261 365.0 268.5Q369 276 369 285Q369 293 362.5 301.0Q356 309 339 309Q321 309 310.5 297.0Q300 285 300 267Q300 236 322.0 216.0Q344 196 377 196Q414 196 441.0 225.5Q468 255 468 302Q468 324 456.5 349.5Q445 375 416.5 393.5Q388 412 338 412Q288 412 258.0 389.0Q228 366 214.5 332.0Q201 298 201 264Q201 225 219.0 186.0Q237 147 276.5 121.0Q316 95 379 95Q431 95 473.5 122.5Q516 150 542.0 197.5Q568 245 568 305Q568 335 557.0 371.0Q546 407 520.0 439.0Q494 471 449.5 491.5Q405 512 338 512Q263 512 210.0 477.0Q157 442 129.0 385.0Q101 328 101 262H51Q51 351 86.0 418.5Q121 486 185.5 524.0Q250 562 337 562Q414 562 468.0 538.0Q522 514 555.0 475.5Q588 437 603.0 392.0Q618 347 618 305Q618 260 603.0 214.0Q588 168 558.0 129.5Q528 91 483.0 68.0Q438 45 379 45Z" fill="#0000FF"/>
</svg>
